<svg xmlns="http://www.w3.org/2000/svg" xmlns:xlink="http://www.w3.org/1999/xlink" width="900" height="355" viewBox="0 0 900 355" role="img" aria-label="Activity matrix: the GitHub contribution calendar for the last year, with a snake animation generated from it by Platane/snk."><title>Activity matrix: the GitHub contribution calendar for the last year, with a snake animation generated from it by Platane/snk.</title><style>.flow{stroke-dasharray:3 7;animation:flow 1.8s linear infinite}.flow-slow{stroke-dasharray:2 10;animation:flow 4s linear infinite}.orbit{stroke-dasharray:1 7;animation:orbit 9s linear infinite}@keyframes flow{to{stroke-dashoffset:-20}}@keyframes orbit{to{stroke-dashoffset:-160}}.blink{animation:blink 2.8s ease-in-out infinite}@keyframes blink{0%,100%{opacity:.3}50%{opacity:1}}.ping{animation:ping 3.2s ease-out infinite;transform-box:fill-box;transform-origin:center}@keyframes ping{0%{transform:scale(.5);opacity:.8}100%{transform:scale(2.4);opacity:0}}.d1{animation-delay:.6s}.d2{animation-delay:1.2s}.d3{animation-delay:1.8s}.d4{animation-delay:2.4s}.shine{animation:shine 7s ease-in-out infinite}@keyframes shine{0%,55%{transform:translateX(-160px)}100%{transform:translateX(760px)}}.scan{animation:scan 7s linear infinite}@media (prefers-reduced-motion:reduce){*{animation:none!important}}.sweep{animation:sweep 9s linear infinite}@keyframes sweep{from{transform:translateX(0)}to{transform:translateX(852px)}}</style><defs><pattern id="g" width="28" height="28" patternUnits="userSpaceOnUse"><path d="M28 0H0V28" fill="none" stroke="#12151c" stroke-width="1"/></pattern><radialGradient id="gf" cx="50%" cy="45%" r="65%"><stop offset="0" stop-color="#fff" stop-opacity=".9"/><stop offset="1" stop-color="#fff" stop-opacity="0"/></radialGradient><mask id="gm"><rect width="900" height="355" fill="url(#gf)"/></mask><linearGradient id="pg" x1="0" y1="0" x2="0" y2="1"><stop offset="0" stop-color="#12151d"/><stop offset="1" stop-color="#0a0c11"/></linearGradient><linearGradient id="edge" x1="0" y1="0" x2="1" y2="0"><stop offset="0" stop-color="#fff" stop-opacity="0"/><stop offset=".5" stop-color="#fff" stop-opacity=".22"/><stop offset="1" stop-color="#fff" stop-opacity="0"/></linearGradient><linearGradient id="hair" x1="0" y1="0" x2="1" y2="0"><stop offset="0" stop-color="#2a303d"/><stop offset=".7" stop-color="#1d212b"/><stop offset="1" stop-color="#1d212b" stop-opacity="0"/></linearGradient><linearGradient id="rim" x1="0" y1="0" x2="1" y2="1"><stop offset="0" stop-color="#3dd6f5"/><stop offset=".5" stop-color="#4f8cff"/><stop offset="1" stop-color="#9b7bff"/></linearGradient><linearGradient id="wm" x1="0" y1="0" x2="0" y2="91" gradientUnits="userSpaceOnUse"><stop offset="0" stop-color="#ffffff"/><stop offset=".55" stop-color="#edebe6"/><stop offset="1" stop-color="#8fe3f5"/></linearGradient><linearGradient id="sheen" x1="0" y1="0" x2="1" y2="0"><stop offset="0" stop-color="#fff" stop-opacity="0"/><stop offset=".5" stop-color="#fff" stop-opacity=".85"/><stop offset="1" stop-color="#fff" stop-opacity="0"/></linearGradient><linearGradient id="gold" x1="0" y1="0" x2="1" y2="1"><stop offset="0" stop-color="#fff1c7"/><stop offset=".45" stop-color="#f2b544"/><stop offset="1" stop-color="#8a5a12"/></linearGradient><linearGradient id="silver" x1="0" y1="0" x2="1" y2="1"><stop offset="0" stop-color="#ffffff"/><stop offset=".5" stop-color="#c9d3e0"/><stop offset="1" stop-color="#5d6878"/></linearGradient><linearGradient id="bronze" x1="0" y1="0" x2="1" y2="1"><stop offset="0" stop-color="#ffd9bd"/><stop offset=".5" stop-color="#d9905f"/><stop offset="1" stop-color="#6b3818"/></linearGradient><filter id="glow" x="-100%" y="-100%" width="300%" height="300%"><feGaussianBlur stdDeviation="4"/></filter><filter id="soft" x="-50%" y="-50%" width="200%" height="200%"><feGaussianBlur stdDeviation="18"/></filter></defs><rect width="900" height="355" rx="16" fill="#07080b"/><rect width="900" height="355" rx="16" fill="url(#g)" mask="url(#gm)"/><rect x=".5" y=".5" width="899" height="354" rx="16" fill="none" stroke="#1d212b"/><text x="28.0" y="40.0" font-family="'JetBrains Mono','SF Mono','Cascadia Mono',Consolas,Menlo,monospace" font-size="11" fill="#e0473f" font-weight="700" letter-spacing="2">09</text><text x="54.0" y="40.0" font-family="'JetBrains Mono','SF Mono','Cascadia Mono',Consolas,Menlo,monospace" font-size="11" fill="#454b59" letter-spacing="1">//</text><text x="76.0" y="40.0" font-family="'JetBrains Mono','SF Mono','Cascadia Mono',Consolas,Menlo,monospace" font-size="11.5" fill="#edebe6" font-weight="600" letter-spacing="3">ACTIVITY MATRIX</text><text x="872.0" y="40.0" font-family="'JetBrains Mono','SF Mono','Cascadia Mono',Consolas,Menlo,monospace" font-size="10" fill="#6b7180" text-anchor="end" letter-spacing="1.6">CONTRIBUTION · NEURAL ACTIVITY</text><rect x="28" y="54" width="844" height="1" fill="url(#hair)"/><rect x="28" y="54" width="28" height="1" fill="#e0473f"/><text x="28.0" y="78.0" font-family="'JetBrains Mono','SF Mono','Cascadia Mono',Consolas,Menlo,monospace" font-size="11" fill="#6b7180">Every cell is one real day of GitHub contributions. The snake is regenerated from the live calendar every 12 hours.</text><rect x="16" y="88" width="868" height="201.9" rx="10" fill="#0a0c10" stroke="#2a303d"/><g stroke="#3dd6f5" stroke-width="1.4" fill="none" opacity=".6"><path d="M16.0 100.0V88.0H28.0"/><path d="M884.0 100.0V88.0H872.0"/><path d="M16.0 277.9V289.9H28.0"/><path d="M884.0 277.9V289.9H872.0"/></g><svg x="24" y="96" width="852" height="185.9" viewBox="-16 -32 880 192" overflow="visible"><desc>Generated with https://github.com/Platane/snk</desc><style>:root{--cb:#1b1f230a;--cs:#e0473f;--ce:#161b22;--c0:#161b22;--c1:#0b3a4a;--c2:#0e6a82;--c3:#22a6c4;--c4:#67e8f9}.c{shape-rendering:geometricPrecision;fill:var(--ce);stroke-width:1px;stroke:var(--cb);animation:none 18700ms linear infinite;width:12px;height:12px}@keyframes c0{89.83%{fill:var(--c4)}89.85%,100%{fill:var(--ce)}}.c.c0{fill:var(--c4);animation-name:c0}@keyframes c1{15.5%{fill:var(--c1)}15.52%,100%{fill:var(--ce)}}.c.c1{fill:var(--c1);animation-name:c1}@keyframes c2{16.03%{fill:var(--c1)}16.05%,100%{fill:var(--ce)}}.c.c2{fill:var(--c1);animation-name:c2}@keyframes c3{17.64%{fill:var(--c1)}17.66%,100%{fill:var(--ce)}}.c.c3{fill:var(--c1);animation-name:c3}@keyframes c4{22.98%{fill:var(--c1)}23%,100%{fill:var(--ce)}}.c.c4{fill:var(--c1);animation-name:c4}@keyframes c5{28.33%{fill:var(--c1)}28.35%,100%{fill:var(--ce)}}.c.c5{fill:var(--c1);animation-name:c5}@keyframes c6{31.01%{fill:var(--c1)}31.03%,100%{fill:var(--ce)}}.c.c6{fill:var(--c1);animation-name:c6}@keyframes c7{59.35%{fill:var(--c3)}59.37%,100%{fill:var(--ce)}}.c.c7{fill:var(--c3);animation-name:c7}@keyframes c8{29.94%{fill:var(--c1)}29.96%,100%{fill:var(--ce)}}.c.c8{fill:var(--c1);animation-name:c8}@keyframes c9{48.65%{fill:var(--c2)}48.67%,100%{fill:var(--ce)}}.c.c9{fill:var(--c2);animation-name:c9}@keyframes ca{37.42%{fill:var(--c1)}37.44%,100%{fill:var(--ce)}}.c.ca{fill:var(--c1);animation-name:ca}@keyframes cb{68.44%{fill:var(--c4)}68.46%,100%{fill:var(--ce)}}.c.cb{fill:var(--c4);animation-name:cb}@keyframes cc{50.79%{fill:var(--c2)}50.81%,100%{fill:var(--ce)}}.c.cc{fill:var(--c2);animation-name:cc}@keyframes cd{55.6%{fill:var(--c3)}55.62%,100%{fill:var(--ce)}}.c.cd{fill:var(--c3);animation-name:cd}@keyframes ce{63.63%{fill:var(--c4)}63.65%,100%{fill:var(--ce)}}.c.ce{fill:var(--c4);animation-name:ce}@keyframes cf{48.12%{fill:var(--c2)}48.14%,100%{fill:var(--ce)}}.c.cf{fill:var(--c2);animation-name:cf}@keyframes cg{53.47%{fill:var(--c3)}53.49%,100%{fill:var(--ce)}}.c.cg{fill:var(--c3);animation-name:cg}@keyframes ch{43.31%{fill:var(--c1)}43.33%,100%{fill:var(--ce)}}.c.ch{fill:var(--c1);animation-name:ch}@keyframes ci{42.24%{fill:var(--c1)}42.26%,100%{fill:var(--ce)}}.c.ci{fill:var(--c1);animation-name:ci}@keyframes cj{47.05%{fill:var(--c1)}47.07%,100%{fill:var(--ce)}}.c.cj{fill:var(--c1);animation-name:cj}@keyframes ck{47.58%{fill:var(--c1)}47.6%,100%{fill:var(--ce)}}.c.ck{fill:var(--c1);animation-name:ck}@keyframes cl{65.23%{fill:var(--c4)}65.25%,100%{fill:var(--ce)}}.c.cl{fill:var(--c4);animation-name:cl}@keyframes cm{52.93%{fill:var(--c3)}52.95%,100%{fill:var(--ce)}}.c.cm{fill:var(--c3);animation-name:cm}@keyframes cn{43.84%{fill:var(--c1)}43.86%,100%{fill:var(--ce)}}.c.cn{fill:var(--c1);animation-name:cn}@keyframes co{51.86%{fill:var(--c2)}51.88%,100%{fill:var(--ce)}}.c.co{fill:var(--c2);animation-name:co}@keyframes cp{41.7%{fill:var(--c1)}41.72%,100%{fill:var(--ce)}}.c.cp{fill:var(--c1);animation-name:cp}@keyframes cq{41.17%{fill:var(--c1)}41.19%,100%{fill:var(--ce)}}.c.cq{fill:var(--c1);animation-name:cq}@keyframes cr{40.1%{fill:var(--c1)}40.12%,100%{fill:var(--ce)}}.c.cr{fill:var(--c1);animation-name:cr}.u{transform-origin:0 0;transform:scale(0,1);animation:none linear 18700ms infinite}@keyframes u0{15.5%{transform:scale(0.000,1)}15.52%,16.03%{transform:scale(0.063,1)}16.05%,17.64%{transform:scale(0.125,1)}17.66%,22.98%{transform:scale(0.188,1)}23%,28.33%{transform:scale(0.250,1)}28.35%,29.94%{transform:scale(0.313,1)}29.96%,31.01%{transform:scale(0.375,1)}31.03%,37.42%{transform:scale(0.438,1)}37.44%,40.1%{transform:scale(0.500,1)}40.12%,41.17%{transform:scale(0.563,1)}41.19%,41.7%{transform:scale(0.625,1)}41.72%,42.24%{transform:scale(0.688,1)}42.26%,43.31%{transform:scale(0.750,1)}43.33%,43.84%{transform:scale(0.813,1)}43.86%,47.05%{transform:scale(0.875,1)}47.07%,47.58%{transform:scale(0.938,1)}47.6%,100%{transform:scale(1.000,1)}}.u.u0{fill:var(--c1);animation-name:u0;transform-origin:0.0px 0}@keyframes u1{48.12%{transform:scale(0.000,1)}48.14%,48.65%{transform:scale(0.250,1)}48.67%,50.79%{transform:scale(0.500,1)}50.81%,51.86%{transform:scale(0.750,1)}51.88%,100%{transform:scale(1.000,1)}}.u.u1{fill:var(--c2);animation-name:u1;transform-origin:484.6px 0}@keyframes u2{52.93%{transform:scale(0.000,1)}52.95%,53.47%{transform:scale(0.250,1)}53.49%,55.6%{transform:scale(0.500,1)}55.62%,59.35%{transform:scale(0.750,1)}59.37%,100%{transform:scale(1.000,1)}}.u.u2{fill:var(--c3);animation-name:u2;transform-origin:605.7px 0}@keyframes u3{63.63%{transform:scale(0.000,1)}63.65%,65.23%{transform:scale(0.250,1)}65.25%,68.44%{transform:scale(0.500,1)}68.46%,89.83%{transform:scale(0.750,1)}89.85%,100%{transform:scale(1.000,1)}}.u.u3{fill:var(--c4);animation-name:u3;transform-origin:726.9px 0}.s{shape-rendering:geometricPrecision;fill:var(--cs);animation:none linear 18700ms infinite}@keyframes s0{0%,99.47%{transform:translate(0px,-16px)}0.53%{transform:translate(0px,0px)}13.37%{transform:translate(384px,0px)}16.04%{transform:translate(384px,80px)}17.11%{transform:translate(416px,80px)}17.65%{transform:translate(416px,96px)}21.39%{transform:translate(528px,96px)}22.99%{transform:translate(528px,48px)}27.27%{transform:translate(656px,48px)}28.34%{transform:translate(656px,16px)}29.95%{transform:translate(704px,16px)}30.48%{transform:translate(704px,32px)}31.02%{transform:translate(688px,32px)}31.55%{transform:translate(688px,16px)}34.22%{transform:translate(768px,16px)}36.9%{transform:translate(768px,96px)}37.97%,65.78%{transform:translate(800px,96px)}38.5%{transform:translate(800px,112px)}39.57%{transform:translate(832px,112px)}41.71%{transform:translate(832px,48px)}42.25%,46.52%{transform:translate(816px,48px)}43.32%{transform:translate(816px,16px)}44.39%{transform:translate(848px,16px)}45.45%{transform:translate(848px,48px)}47.59%{transform:translate(816px,80px)}48.66%{transform:translate(784px,80px)}50.27%{transform:translate(784px,32px)}51.87%{transform:translate(832px,32px)}52.94%{transform:translate(832px,0px)}53.48%{transform:translate(816px,0px)}54.55%{transform:translate(816px,32px)}55.08%{transform:translate(800px,32px)}55.61%{transform:translate(800px,48px)}59.36%{transform:translate(688px,48px)}59.89%{transform:translate(688px,64px)}64.17%{transform:translate(816px,64px)}65.24%{transform:translate(816px,96px)}68.45%{transform:translate(800px,16px)}88.24%{transform:translate(208px,16px)}89.84%{transform:translate(208px,64px)}94.12%{transform:translate(80px,64px)}94.65%{transform:translate(80px,48px)}95.19%{transform:translate(64px,48px)}95.72%{transform:translate(64px,32px)}96.26%{transform:translate(48px,32px)}97.86%{transform:translate(48px,-16px)}}.s.s0{transform:translate(0px,-16px);animation-name:s0}@keyframes s1{0%,99.47%{transform:translate(16px,-16px)}0.53%{transform:translate(0px,-16px)}1.07%{transform:translate(0px,0px)}13.9%{transform:translate(384px,0px)}16.58%{transform:translate(384px,80px)}17.65%{transform:translate(416px,80px)}18.18%{transform:translate(416px,96px)}21.93%{transform:translate(528px,96px)}23.53%{transform:translate(528px,48px)}27.81%{transform:translate(656px,48px)}28.88%{transform:translate(656px,16px)}30.48%{transform:translate(704px,16px)}31.02%{transform:translate(704px,32px)}31.55%{transform:translate(688px,32px)}32.09%{transform:translate(688px,16px)}34.76%{transform:translate(768px,16px)}37.43%{transform:translate(768px,96px)}38.5%,66.31%{transform:translate(800px,96px)}39.04%{transform:translate(800px,112px)}40.11%{transform:translate(832px,112px)}42.25%{transform:translate(832px,48px)}42.78%,47.06%{transform:translate(816px,48px)}43.85%{transform:translate(816px,16px)}44.92%{transform:translate(848px,16px)}45.99%{transform:translate(848px,48px)}48.13%{transform:translate(816px,80px)}49.2%{transform:translate(784px,80px)}50.8%{transform:translate(784px,32px)}52.41%{transform:translate(832px,32px)}53.48%{transform:translate(832px,0px)}54.01%{transform:translate(816px,0px)}55.08%{transform:translate(816px,32px)}55.61%{transform:translate(800px,32px)}56.15%{transform:translate(800px,48px)}59.89%{transform:translate(688px,48px)}60.43%{transform:translate(688px,64px)}64.71%{transform:translate(816px,64px)}65.78%{transform:translate(816px,96px)}68.98%{transform:translate(800px,16px)}88.77%{transform:translate(208px,16px)}90.37%{transform:translate(208px,64px)}94.65%{transform:translate(80px,64px)}95.19%{transform:translate(80px,48px)}95.72%{transform:translate(64px,48px)}96.26%{transform:translate(64px,32px)}96.79%{transform:translate(48px,32px)}98.4%{transform:translate(48px,-16px)}}.s.s1{transform:translate(16px,-16px);animation-name:s1}@keyframes s2{0%,99.47%{transform:translate(32px,-16px)}1.07%{transform:translate(0px,-16px)}1.6%{transform:translate(0px,0px)}14.44%{transform:translate(384px,0px)}17.11%{transform:translate(384px,80px)}18.18%{transform:translate(416px,80px)}18.72%{transform:translate(416px,96px)}22.46%{transform:translate(528px,96px)}24.06%{transform:translate(528px,48px)}28.34%{transform:translate(656px,48px)}29.41%{transform:translate(656px,16px)}31.02%{transform:translate(704px,16px)}31.55%{transform:translate(704px,32px)}32.09%{transform:translate(688px,32px)}32.62%{transform:translate(688px,16px)}35.29%{transform:translate(768px,16px)}37.97%{transform:translate(768px,96px)}39.04%,66.84%{transform:translate(800px,96px)}39.57%{transform:translate(800px,112px)}40.64%{transform:translate(832px,112px)}42.78%{transform:translate(832px,48px)}43.32%,47.59%{transform:translate(816px,48px)}44.39%{transform:translate(816px,16px)}45.45%{transform:translate(848px,16px)}46.52%{transform:translate(848px,48px)}48.66%{transform:translate(816px,80px)}49.73%{transform:translate(784px,80px)}51.34%{transform:translate(784px,32px)}52.94%{transform:translate(832px,32px)}54.01%{transform:translate(832px,0px)}54.55%{transform:translate(816px,0px)}55.61%{transform:translate(816px,32px)}56.15%{transform:translate(800px,32px)}56.68%{transform:translate(800px,48px)}60.43%{transform:translate(688px,48px)}60.96%{transform:translate(688px,64px)}65.24%{transform:translate(816px,64px)}66.31%{transform:translate(816px,96px)}69.52%{transform:translate(800px,16px)}89.3%{transform:translate(208px,16px)}90.91%{transform:translate(208px,64px)}95.19%{transform:translate(80px,64px)}95.72%{transform:translate(80px,48px)}96.26%{transform:translate(64px,48px)}96.79%{transform:translate(64px,32px)}97.33%{transform:translate(48px,32px)}98.93%{transform:translate(48px,-16px)}}.s.s2{transform:translate(32px,-16px);animation-name:s2}@keyframes s3{0%,99.47%{transform:translate(48px,-16px)}1.6%{transform:translate(0px,-16px)}2.14%{transform:translate(0px,0px)}14.97%{transform:translate(384px,0px)}17.65%{transform:translate(384px,80px)}18.72%{transform:translate(416px,80px)}19.25%{transform:translate(416px,96px)}22.99%{transform:translate(528px,96px)}24.6%{transform:translate(528px,48px)}28.88%{transform:translate(656px,48px)}29.95%{transform:translate(656px,16px)}31.55%{transform:translate(704px,16px)}32.09%{transform:translate(704px,32px)}32.62%{transform:translate(688px,32px)}33.16%{transform:translate(688px,16px)}35.83%{transform:translate(768px,16px)}38.5%{transform:translate(768px,96px)}39.57%,67.38%{transform:translate(800px,96px)}40.11%{transform:translate(800px,112px)}41.18%{transform:translate(832px,112px)}43.32%{transform:translate(832px,48px)}43.85%,48.13%{transform:translate(816px,48px)}44.92%{transform:translate(816px,16px)}45.99%{transform:translate(848px,16px)}47.06%{transform:translate(848px,48px)}49.2%{transform:translate(816px,80px)}50.27%{transform:translate(784px,80px)}51.87%{transform:translate(784px,32px)}53.48%{transform:translate(832px,32px)}54.55%{transform:translate(832px,0px)}55.08%{transform:translate(816px,0px)}56.15%{transform:translate(816px,32px)}56.68%{transform:translate(800px,32px)}57.22%{transform:translate(800px,48px)}60.96%{transform:translate(688px,48px)}61.5%{transform:translate(688px,64px)}65.78%{transform:translate(816px,64px)}66.84%{transform:translate(816px,96px)}70.05%{transform:translate(800px,16px)}89.84%{transform:translate(208px,16px)}91.44%{transform:translate(208px,64px)}95.72%{transform:translate(80px,64px)}96.26%{transform:translate(80px,48px)}96.79%{transform:translate(64px,48px)}97.33%{transform:translate(64px,32px)}97.86%{transform:translate(48px,32px)}}.s.s3{transform:translate(48px,-16px);animation-name:s3}</style><rect class="c" x="2" y="2" rx="2" ry="2"/><rect class="c" x="2" y="18" rx="2" ry="2"/><rect class="c" x="2" y="34" rx="2" ry="2"/><rect class="c" x="2" y="50" rx="2" ry="2"/><rect class="c" x="2" y="66" rx="2" ry="2"/><rect class="c" x="2" y="82" rx="2" ry="2"/><rect class="c" x="2" y="98" rx="2" ry="2"/><rect class="c" x="18" y="2" rx="2" ry="2"/><rect class="c" x="18" y="18" rx="2" ry="2"/><rect class="c" x="18" y="34" rx="2" ry="2"/><rect class="c" x="18" y="50" rx="2" ry="2"/><rect class="c" x="18" y="66" rx="2" ry="2"/><rect class="c" x="18" y="82" rx="2" ry="2"/><rect class="c" x="18" y="98" rx="2" ry="2"/><rect class="c" x="34" y="2" rx="2" ry="2"/><rect class="c" x="34" y="18" rx="2" ry="2"/><rect class="c" x="34" y="34" rx="2" ry="2"/><rect class="c" x="34" y="50" rx="2" ry="2"/><rect class="c" x="34" y="66" rx="2" ry="2"/><rect class="c" x="34" y="82" rx="2" ry="2"/><rect class="c" x="34" y="98" rx="2" ry="2"/><rect class="c" x="50" y="2" rx="2" ry="2"/><rect class="c" x="50" y="18" rx="2" ry="2"/><rect class="c" x="50" y="34" rx="2" ry="2"/><rect class="c" x="50" y="50" rx="2" ry="2"/><rect class="c" x="50" y="66" rx="2" ry="2"/><rect class="c" x="50" y="82" rx="2" ry="2"/><rect class="c" x="50" y="98" rx="2" ry="2"/><rect class="c" x="66" y="2" rx="2" ry="2"/><rect class="c" x="66" y="18" rx="2" ry="2"/><rect class="c" x="66" y="34" rx="2" ry="2"/><rect class="c" x="66" y="50" rx="2" ry="2"/><rect class="c" x="66" y="66" rx="2" ry="2"/><rect class="c" x="66" y="82" rx="2" ry="2"/><rect class="c" x="66" y="98" rx="2" ry="2"/><rect class="c" x="82" y="2" rx="2" ry="2"/><rect class="c" x="82" y="18" rx="2" ry="2"/><rect class="c" x="82" y="34" rx="2" ry="2"/><rect class="c" x="82" y="50" rx="2" ry="2"/><rect class="c" x="82" y="66" rx="2" ry="2"/><rect class="c" x="82" y="82" rx="2" ry="2"/><rect class="c" x="82" y="98" rx="2" ry="2"/><rect class="c" x="98" y="2" rx="2" ry="2"/><rect class="c" x="98" y="18" rx="2" ry="2"/><rect class="c" x="98" y="34" rx="2" ry="2"/><rect class="c" x="98" y="50" rx="2" ry="2"/><rect class="c" x="98" y="66" rx="2" ry="2"/><rect class="c" x="98" y="82" rx="2" ry="2"/><rect class="c" x="98" y="98" rx="2" ry="2"/><rect class="c" x="114" y="2" rx="2" ry="2"/><rect class="c" x="114" y="18" rx="2" ry="2"/><rect class="c" x="114" y="34" rx="2" ry="2"/><rect class="c" x="114" y="50" rx="2" ry="2"/><rect class="c" x="114" y="66" rx="2" ry="2"/><rect class="c" x="114" y="82" rx="2" ry="2"/><rect class="c" x="114" y="98" rx="2" ry="2"/><rect class="c" x="130" y="2" rx="2" ry="2"/><rect class="c" x="130" y="18" rx="2" ry="2"/><rect class="c" x="130" y="34" rx="2" ry="2"/><rect class="c" x="130" y="50" rx="2" ry="2"/><rect class="c" x="130" y="66" rx="2" ry="2"/><rect class="c" x="130" y="82" rx="2" ry="2"/><rect class="c" x="130" y="98" rx="2" ry="2"/><rect class="c" x="146" y="2" rx="2" ry="2"/><rect class="c" x="146" y="18" rx="2" ry="2"/><rect class="c" x="146" y="34" rx="2" ry="2"/><rect class="c" x="146" y="50" rx="2" ry="2"/><rect class="c" x="146" y="66" rx="2" ry="2"/><rect class="c" x="146" y="82" rx="2" ry="2"/><rect class="c" x="146" y="98" rx="2" ry="2"/><rect class="c" x="162" y="2" rx="2" ry="2"/><rect class="c" x="162" y="18" rx="2" ry="2"/><rect class="c" x="162" y="34" rx="2" ry="2"/><rect class="c" x="162" y="50" rx="2" ry="2"/><rect class="c" x="162" y="66" rx="2" ry="2"/><rect class="c" x="162" y="82" rx="2" ry="2"/><rect class="c" x="162" y="98" rx="2" ry="2"/><rect class="c" x="178" y="2" rx="2" ry="2"/><rect class="c" x="178" y="18" rx="2" ry="2"/><rect class="c" x="178" y="34" rx="2" ry="2"/><rect class="c" x="178" y="50" rx="2" ry="2"/><rect class="c" x="178" y="66" rx="2" ry="2"/><rect class="c" x="178" y="82" rx="2" ry="2"/><rect class="c" x="178" y="98" rx="2" ry="2"/><rect class="c" x="194" y="2" rx="2" ry="2"/><rect class="c" x="194" y="18" rx="2" ry="2"/><rect class="c" x="194" y="34" rx="2" ry="2"/><rect class="c" x="194" y="50" rx="2" ry="2"/><rect class="c" x="194" y="66" rx="2" ry="2"/><rect class="c" x="194" y="82" rx="2" ry="2"/><rect class="c" x="194" y="98" rx="2" ry="2"/><rect class="c" x="210" y="2" rx="2" ry="2"/><rect class="c" x="210" y="18" rx="2" ry="2"/><rect class="c" x="210" y="34" rx="2" ry="2"/><rect class="c" x="210" y="50" rx="2" ry="2"/><rect class="c c0" x="210" y="66" rx="2" ry="2"/><rect class="c" x="210" y="82" rx="2" ry="2"/><rect class="c" x="210" y="98" rx="2" ry="2"/><rect class="c" x="226" y="2" rx="2" ry="2"/><rect class="c" x="226" y="18" rx="2" ry="2"/><rect class="c" x="226" y="34" rx="2" ry="2"/><rect class="c" x="226" y="50" rx="2" ry="2"/><rect class="c" x="226" y="66" rx="2" ry="2"/><rect class="c" x="226" y="82" rx="2" ry="2"/><rect class="c" x="226" y="98" rx="2" ry="2"/><rect class="c" x="242" y="2" rx="2" ry="2"/><rect class="c" x="242" y="18" rx="2" ry="2"/><rect class="c" x="242" y="34" rx="2" ry="2"/><rect class="c" x="242" y="50" rx="2" ry="2"/><rect class="c" x="242" y="66" rx="2" ry="2"/><rect class="c" x="242" y="82" rx="2" ry="2"/><rect class="c" x="242" y="98" rx="2" ry="2"/><rect class="c" x="258" y="2" rx="2" ry="2"/><rect class="c" x="258" y="18" rx="2" ry="2"/><rect class="c" x="258" y="34" rx="2" ry="2"/><rect class="c" x="258" y="50" rx="2" ry="2"/><rect class="c" x="258" y="66" rx="2" ry="2"/><rect class="c" x="258" y="82" rx="2" ry="2"/><rect class="c" x="258" y="98" rx="2" ry="2"/><rect class="c" x="274" y="2" rx="2" ry="2"/><rect class="c" x="274" y="18" rx="2" ry="2"/><rect class="c" x="274" y="34" rx="2" ry="2"/><rect class="c" x="274" y="50" rx="2" ry="2"/><rect class="c" x="274" y="66" rx="2" ry="2"/><rect class="c" x="274" y="82" rx="2" ry="2"/><rect class="c" x="274" y="98" rx="2" ry="2"/><rect class="c" x="290" y="2" rx="2" ry="2"/><rect class="c" x="290" y="18" rx="2" ry="2"/><rect class="c" x="290" y="34" rx="2" ry="2"/><rect class="c" x="290" y="50" rx="2" ry="2"/><rect class="c" x="290" y="66" rx="2" ry="2"/><rect class="c" x="290" y="82" rx="2" ry="2"/><rect class="c" x="290" y="98" rx="2" ry="2"/><rect class="c" x="306" y="2" rx="2" ry="2"/><rect class="c" x="306" y="18" rx="2" ry="2"/><rect class="c" x="306" y="34" rx="2" ry="2"/><rect class="c" x="306" y="50" rx="2" ry="2"/><rect class="c" x="306" y="66" rx="2" ry="2"/><rect class="c" x="306" y="82" rx="2" ry="2"/><rect class="c" x="306" y="98" rx="2" ry="2"/><rect class="c" x="322" y="2" rx="2" ry="2"/><rect class="c" x="322" y="18" rx="2" ry="2"/><rect class="c" x="322" y="34" rx="2" ry="2"/><rect class="c" x="322" y="50" rx="2" ry="2"/><rect class="c" x="322" y="66" rx="2" ry="2"/><rect class="c" x="322" y="82" rx="2" ry="2"/><rect class="c" x="322" y="98" rx="2" ry="2"/><rect class="c" x="338" y="2" rx="2" ry="2"/><rect class="c" x="338" y="18" rx="2" ry="2"/><rect class="c" x="338" y="34" rx="2" ry="2"/><rect class="c" x="338" y="50" rx="2" ry="2"/><rect class="c" x="338" y="66" rx="2" ry="2"/><rect class="c" x="338" y="82" rx="2" ry="2"/><rect class="c" x="338" y="98" rx="2" ry="2"/><rect class="c" x="354" y="2" rx="2" ry="2"/><rect class="c" x="354" y="18" rx="2" ry="2"/><rect class="c" x="354" y="34" rx="2" ry="2"/><rect class="c" x="354" y="50" rx="2" ry="2"/><rect class="c" x="354" y="66" rx="2" ry="2"/><rect class="c" x="354" y="82" rx="2" ry="2"/><rect class="c" x="354" y="98" rx="2" ry="2"/><rect class="c" x="370" y="2" rx="2" ry="2"/><rect class="c" x="370" y="18" rx="2" ry="2"/><rect class="c" x="370" y="34" rx="2" ry="2"/><rect class="c" x="370" y="50" rx="2" ry="2"/><rect class="c" x="370" y="66" rx="2" ry="2"/><rect class="c" x="370" y="82" rx="2" ry="2"/><rect class="c" x="370" y="98" rx="2" ry="2"/><rect class="c" x="386" y="2" rx="2" ry="2"/><rect class="c" x="386" y="18" rx="2" ry="2"/><rect class="c" x="386" y="34" rx="2" ry="2"/><rect class="c" x="386" y="50" rx="2" ry="2"/><rect class="c c1" x="386" y="66" rx="2" ry="2"/><rect class="c c2" x="386" y="82" rx="2" ry="2"/><rect class="c" x="386" y="98" rx="2" ry="2"/><rect class="c" x="402" y="2" rx="2" ry="2"/><rect class="c" x="402" y="18" rx="2" ry="2"/><rect class="c" x="402" y="34" rx="2" ry="2"/><rect class="c" x="402" y="50" rx="2" ry="2"/><rect class="c" x="402" y="66" rx="2" ry="2"/><rect class="c" x="402" y="82" rx="2" ry="2"/><rect class="c" x="402" y="98" rx="2" ry="2"/><rect class="c" x="418" y="2" rx="2" ry="2"/><rect class="c" x="418" y="18" rx="2" ry="2"/><rect class="c" x="418" y="34" rx="2" ry="2"/><rect class="c" x="418" y="50" rx="2" ry="2"/><rect class="c" x="418" y="66" rx="2" ry="2"/><rect class="c" x="418" y="82" rx="2" ry="2"/><rect class="c c3" x="418" y="98" rx="2" ry="2"/><rect class="c" x="434" y="2" rx="2" ry="2"/><rect class="c" x="434" y="18" rx="2" ry="2"/><rect class="c" x="434" y="34" rx="2" ry="2"/><rect class="c" x="434" y="50" rx="2" ry="2"/><rect class="c" x="434" y="66" rx="2" ry="2"/><rect class="c" x="434" y="82" rx="2" ry="2"/><rect class="c" x="434" y="98" rx="2" ry="2"/><rect class="c" x="450" y="2" rx="2" ry="2"/><rect class="c" x="450" y="18" rx="2" ry="2"/><rect class="c" x="450" y="34" rx="2" ry="2"/><rect class="c" x="450" y="50" rx="2" ry="2"/><rect class="c" x="450" y="66" rx="2" ry="2"/><rect class="c" x="450" y="82" rx="2" ry="2"/><rect class="c" x="450" y="98" rx="2" ry="2"/><rect class="c" x="466" y="2" rx="2" ry="2"/><rect class="c" x="466" y="18" rx="2" ry="2"/><rect class="c" x="466" y="34" rx="2" ry="2"/><rect class="c" x="466" y="50" rx="2" ry="2"/><rect class="c" x="466" y="66" rx="2" ry="2"/><rect class="c" x="466" y="82" rx="2" ry="2"/><rect class="c" x="466" y="98" rx="2" ry="2"/><rect class="c" x="482" y="2" rx="2" ry="2"/><rect class="c" x="482" y="18" rx="2" ry="2"/><rect class="c" x="482" y="34" rx="2" ry="2"/><rect class="c" x="482" y="50" rx="2" ry="2"/><rect class="c" x="482" y="66" rx="2" ry="2"/><rect class="c" x="482" y="82" rx="2" ry="2"/><rect class="c" x="482" y="98" rx="2" ry="2"/><rect class="c" x="498" y="2" rx="2" ry="2"/><rect class="c" x="498" y="18" rx="2" ry="2"/><rect class="c" x="498" y="34" rx="2" ry="2"/><rect class="c" x="498" y="50" rx="2" ry="2"/><rect class="c" x="498" y="66" rx="2" ry="2"/><rect class="c" x="498" y="82" rx="2" ry="2"/><rect class="c" x="498" y="98" rx="2" ry="2"/><rect class="c" x="514" y="2" rx="2" ry="2"/><rect class="c" x="514" y="18" rx="2" ry="2"/><rect class="c" x="514" y="34" rx="2" ry="2"/><rect class="c" x="514" y="50" rx="2" ry="2"/><rect class="c" x="514" y="66" rx="2" ry="2"/><rect class="c" x="514" y="82" rx="2" ry="2"/><rect class="c" x="514" y="98" rx="2" ry="2"/><rect class="c" x="530" y="2" rx="2" ry="2"/><rect class="c" x="530" y="18" rx="2" ry="2"/><rect class="c" x="530" y="34" rx="2" ry="2"/><rect class="c c4" x="530" y="50" rx="2" ry="2"/><rect class="c" x="530" y="66" rx="2" ry="2"/><rect class="c" x="530" y="82" rx="2" ry="2"/><rect class="c" x="530" y="98" rx="2" ry="2"/><rect class="c" x="546" y="2" rx="2" ry="2"/><rect class="c" x="546" y="18" rx="2" ry="2"/><rect class="c" x="546" y="34" rx="2" ry="2"/><rect class="c" x="546" y="50" rx="2" ry="2"/><rect class="c" x="546" y="66" rx="2" ry="2"/><rect class="c" x="546" y="82" rx="2" ry="2"/><rect class="c" x="546" y="98" rx="2" ry="2"/><rect class="c" x="562" y="2" rx="2" ry="2"/><rect class="c" x="562" y="18" rx="2" ry="2"/><rect class="c" x="562" y="34" rx="2" ry="2"/><rect class="c" x="562" y="50" rx="2" ry="2"/><rect class="c" x="562" y="66" rx="2" ry="2"/><rect class="c" x="562" y="82" rx="2" ry="2"/><rect class="c" x="562" y="98" rx="2" ry="2"/><rect class="c" x="578" y="2" rx="2" ry="2"/><rect class="c" x="578" y="18" rx="2" ry="2"/><rect class="c" x="578" y="34" rx="2" ry="2"/><rect class="c" x="578" y="50" rx="2" ry="2"/><rect class="c" x="578" y="66" rx="2" ry="2"/><rect class="c" x="578" y="82" rx="2" ry="2"/><rect class="c" x="578" y="98" rx="2" ry="2"/><rect class="c" x="594" y="2" rx="2" ry="2"/><rect class="c" x="594" y="18" rx="2" ry="2"/><rect class="c" x="594" y="34" rx="2" ry="2"/><rect class="c" x="594" y="50" rx="2" ry="2"/><rect class="c" x="594" y="66" rx="2" ry="2"/><rect class="c" x="594" y="82" rx="2" ry="2"/><rect class="c" x="594" y="98" rx="2" ry="2"/><rect class="c" x="610" y="2" rx="2" ry="2"/><rect class="c" x="610" y="18" rx="2" ry="2"/><rect class="c" x="610" y="34" rx="2" ry="2"/><rect class="c" x="610" y="50" rx="2" ry="2"/><rect class="c" x="610" y="66" rx="2" ry="2"/><rect class="c" x="610" y="82" rx="2" ry="2"/><rect class="c" x="610" y="98" rx="2" ry="2"/><rect class="c" x="626" y="2" rx="2" ry="2"/><rect class="c" x="626" y="18" rx="2" ry="2"/><rect class="c" x="626" y="34" rx="2" ry="2"/><rect class="c" x="626" y="50" rx="2" ry="2"/><rect class="c" x="626" y="66" rx="2" ry="2"/><rect class="c" x="626" y="82" rx="2" ry="2"/><rect class="c" x="626" y="98" rx="2" ry="2"/><rect class="c" x="642" y="2" rx="2" ry="2"/><rect class="c" x="642" y="18" rx="2" ry="2"/><rect class="c" x="642" y="34" rx="2" ry="2"/><rect class="c" x="642" y="50" rx="2" ry="2"/><rect class="c" x="642" y="66" rx="2" ry="2"/><rect class="c" x="642" y="82" rx="2" ry="2"/><rect class="c" x="642" y="98" rx="2" ry="2"/><rect class="c" x="658" y="2" rx="2" ry="2"/><rect class="c c5" x="658" y="18" rx="2" ry="2"/><rect class="c" x="658" y="34" rx="2" ry="2"/><rect class="c" x="658" y="50" rx="2" ry="2"/><rect class="c" x="658" y="66" rx="2" ry="2"/><rect class="c" x="658" y="82" rx="2" ry="2"/><rect class="c" x="658" y="98" rx="2" ry="2"/><rect class="c" x="674" y="2" rx="2" ry="2"/><rect class="c" x="674" y="18" rx="2" ry="2"/><rect class="c" x="674" y="34" rx="2" ry="2"/><rect class="c" x="674" y="50" rx="2" ry="2"/><rect class="c" x="674" y="66" rx="2" ry="2"/><rect class="c" x="674" y="82" rx="2" ry="2"/><rect class="c" x="674" y="98" rx="2" ry="2"/><rect class="c" x="690" y="2" rx="2" ry="2"/><rect class="c" x="690" y="18" rx="2" ry="2"/><rect class="c c6" x="690" y="34" rx="2" ry="2"/><rect class="c c7" x="690" y="50" rx="2" ry="2"/><rect class="c" x="690" y="66" rx="2" ry="2"/><rect class="c" x="690" y="82" rx="2" ry="2"/><rect class="c" x="690" y="98" rx="2" ry="2"/><rect class="c" x="706" y="2" rx="2" ry="2"/><rect class="c c8" x="706" y="18" rx="2" ry="2"/><rect class="c" x="706" y="34" rx="2" ry="2"/><rect class="c" x="706" y="50" rx="2" ry="2"/><rect class="c" x="706" y="66" rx="2" ry="2"/><rect class="c" x="706" y="82" rx="2" ry="2"/><rect class="c" x="706" y="98" rx="2" ry="2"/><rect class="c" x="722" y="2" rx="2" ry="2"/><rect class="c" x="722" y="18" rx="2" ry="2"/><rect class="c" x="722" y="34" rx="2" ry="2"/><rect class="c" x="722" y="50" rx="2" ry="2"/><rect class="c" x="722" y="66" rx="2" ry="2"/><rect class="c" x="722" y="82" rx="2" ry="2"/><rect class="c" x="722" y="98" rx="2" ry="2"/><rect class="c" x="738" y="2" rx="2" ry="2"/><rect class="c" x="738" y="18" rx="2" ry="2"/><rect class="c" x="738" y="34" rx="2" ry="2"/><rect class="c" x="738" y="50" rx="2" ry="2"/><rect class="c" x="738" y="66" rx="2" ry="2"/><rect class="c" x="738" y="82" rx="2" ry="2"/><rect class="c" x="738" y="98" rx="2" ry="2"/><rect class="c" x="754" y="2" rx="2" ry="2"/><rect class="c" x="754" y="18" rx="2" ry="2"/><rect class="c" x="754" y="34" rx="2" ry="2"/><rect class="c" x="754" y="50" rx="2" ry="2"/><rect class="c" x="754" y="66" rx="2" ry="2"/><rect class="c" x="754" y="82" rx="2" ry="2"/><rect class="c" x="754" y="98" rx="2" ry="2"/><rect class="c" x="770" y="2" rx="2" ry="2"/><rect class="c" x="770" y="18" rx="2" ry="2"/><rect class="c" x="770" y="34" rx="2" ry="2"/><rect class="c" x="770" y="50" rx="2" ry="2"/><rect class="c" x="770" y="66" rx="2" ry="2"/><rect class="c" x="770" y="82" rx="2" ry="2"/><rect class="c" x="770" y="98" rx="2" ry="2"/><rect class="c" x="786" y="2" rx="2" ry="2"/><rect class="c" x="786" y="18" rx="2" ry="2"/><rect class="c" x="786" y="34" rx="2" ry="2"/><rect class="c" x="786" y="50" rx="2" ry="2"/><rect class="c" x="786" y="66" rx="2" ry="2"/><rect class="c c9" x="786" y="82" rx="2" ry="2"/><rect class="c ca" x="786" y="98" rx="2" ry="2"/><rect class="c" x="802" y="2" rx="2" ry="2"/><rect class="c cb" x="802" y="18" rx="2" ry="2"/><rect class="c cc" x="802" y="34" rx="2" ry="2"/><rect class="c cd" x="802" y="50" rx="2" ry="2"/><rect class="c ce" x="802" y="66" rx="2" ry="2"/><rect class="c cf" x="802" y="82" rx="2" ry="2"/><rect class="c" x="802" y="98" rx="2" ry="2"/><rect class="c cg" x="818" y="2" rx="2" ry="2"/><rect class="c ch" x="818" y="18" rx="2" ry="2"/><rect class="c" x="818" y="34" rx="2" ry="2"/><rect class="c ci" x="818" y="50" rx="2" ry="2"/><rect class="c cj" x="818" y="66" rx="2" ry="2"/><rect class="c ck" x="818" y="82" rx="2" ry="2"/><rect class="c cl" x="818" y="98" rx="2" ry="2"/><rect class="c cm" x="834" y="2" rx="2" ry="2"/><rect class="c cn" x="834" y="18" rx="2" ry="2"/><rect class="c co" x="834" y="34" rx="2" ry="2"/><rect class="c cp" x="834" y="50" rx="2" ry="2"/><rect class="c cq" x="834" y="66" rx="2" ry="2"/><rect class="c" x="834" y="82" rx="2" ry="2"/><rect class="c cr" x="834" y="98" rx="2" ry="2"/><rect class="u u0" height="12" width="485.2" x="0.0" y="144"/><rect class="u u1" height="12" width="121.7" x="484.6" y="144"/><rect class="u u2" height="12" width="121.7" x="605.7" y="144"/><rect class="u u3" height="12" width="121.7" x="726.9" y="144"/><rect class="s s0" x="0.8" y="0.8" width="14.4" height="14.4" rx="4.5" ry="4.5"/><rect class="s s1" x="1.8" y="1.8" width="12.3" height="12.3" rx="4.1" ry="4.1"/><rect class="s s2" x="2.6" y="2.6" width="10.8" height="10.8" rx="3.6" ry="3.6"/><rect class="s s3" x="3.0" y="3.0" width="9.9" height="9.9" rx="3.3" ry="3.3"/></svg><rect class="sweep" x="24" y="92" width="2" height="193.9" fill="#3dd6f5" opacity=".35"/><text x="28.0" y="329.0" font-family="'JetBrains Mono','SF Mono','Cascadia Mono',Consolas,Menlo,monospace" font-size="10" fill="#6b7180" font-weight="600" letter-spacing="1.4">LESS</text><rect x="70" y="319" width="11" height="11" rx="2.5" fill="#161b22" stroke="#2a303d" stroke-opacity=".4"/><rect x="85" y="319" width="11" height="11" rx="2.5" fill="#0b3a4a" stroke="#2a303d" stroke-opacity=".4"/><rect x="100" y="319" width="11" height="11" rx="2.5" fill="#0e6a82" stroke="#2a303d" stroke-opacity=".4"/><rect x="115" y="319" width="11" height="11" rx="2.5" fill="#22a6c4" stroke="#2a303d" stroke-opacity=".4"/><rect x="130" y="319" width="11" height="11" rx="2.5" fill="#67e8f9" stroke="#2a303d" stroke-opacity=".4"/><text x="151.0" y="329.0" font-family="'JetBrains Mono','SF Mono','Cascadia Mono',Consolas,Menlo,monospace" font-size="10" fill="#6b7180" font-weight="600" letter-spacing="1.4">MORE</text><circle cx="190" cy="325" r="4" fill="#e0473f"/><text x="200.0" y="329.0" font-family="'JetBrains Mono','SF Mono','Cascadia Mono',Consolas,Menlo,monospace" font-size="10" fill="#edebe6" font-weight="600" letter-spacing="1.4">SNAKE</text><text x="872.0" y="329.0" font-family="'JetBrains Mono','SF Mono','Cascadia Mono',Consolas,Menlo,monospace" font-size="9.5" fill="#454b59" text-anchor="end" letter-spacing="1">SOURCE: GITHUB CONTRIBUTION CALENDAR · RENDERED BY PLATANE/SNK</text></svg>