<svg xmlns="http://www.w3.org/2000/svg" width="900" height="292" viewBox="0 0 900 292" role="img" aria-label="Achievements: two first prizes, one runner-up, and four certifications, all self-reported."><defs><pattern id="grid" width="34" height="34" patternUnits="userSpaceOnUse"><path d="M34 0H0V34" fill="none" stroke="#111a2c" stroke-width="1"/></pattern><linearGradient id="rim" x1="0" y1="0" x2="1" y2="0"><stop offset="0%" stop-color="#22d3ee"/><stop offset="50%" stop-color="#6366f1"/><stop offset="100%" stop-color="#8b5cf6"/></linearGradient><linearGradient id="ink" x1="0" y1="0" x2="1" y2="0"><stop offset="0%" stop-color="#ffffff"/><stop offset="100%" stop-color="#7dd3fc"/></linearGradient><filter id="bloom" x="-70%" y="-70%" width="240%" height="240%"><feGaussianBlur stdDeviation="9"/></filter></defs><rect width="900" height="292" rx="14" fill="#060910"/><rect width="900" height="292" rx="14" fill="url(#grid)"/><text x="26" y="34" font-family="'JetBrains Mono','Consolas','SF Mono',Menlo,monospace" font-size="10" letter-spacing="2.6" fill="#3a4763">// ACHIEVEMENTS</text><text x="874" y="34" text-anchor="end" font-family="'JetBrains Mono','Consolas','SF Mono',Menlo,monospace" font-size="10" letter-spacing="2" fill="#3a4763">AWARDS + CERTIFICATIONS</text><line x1="26" y1="46" x2="874" y2="46" stroke="#1b2740"/><rect x="26.0" y="72.0" width="268.0" height="92.0" rx="12" fill="#0a1020" stroke="#f59e0b" stroke-opacity=".4"/><rect x="26.0" y="72.0" width="3.5" height="92.0" rx="1.7" fill="#f59e0b" opacity=".85"/><path d="M44 104 l6-10 6 10 11 2-8 8 2 11-11-6-11 6 2-11-8-8z" fill="#f59e0b" opacity=".85"/><text x="44.0" y="134.0" font-family="'Segoe UI',system-ui,-apple-system,Helvetica,Arial,sans-serif" font-size="13.5" fill="#f59e0b" font-weight="700" letter-spacing="1.3">1ST PRIZE</text><text x="44.0" y="152.0" font-family="'JetBrains Mono','Consolas','SF Mono',Menlo,monospace" font-size="8.8" fill="#c8d6ee">HackTIDE Hackathon</text><text x="276.0" y="104.0" font-family="'JetBrains Mono','Consolas','SF Mono',Menlo,monospace" font-size="8" fill="#5d6b87" text-anchor="end">2026</text><rect x="314.0" y="72.0" width="268.0" height="92.0" rx="12" fill="#0a1020" stroke="#f59e0b" stroke-opacity=".4"/><rect x="314.0" y="72.0" width="3.5" height="92.0" rx="1.7" fill="#f59e0b" opacity=".85"/><path d="M332 104 l6-10 6 10 11 2-8 8 2 11-11-6-11 6 2-11-8-8z" fill="#f59e0b" opacity=".85"/><text x="332.0" y="134.0" font-family="'Segoe UI',system-ui,-apple-system,Helvetica,Arial,sans-serif" font-size="13.5" fill="#f59e0b" font-weight="700" letter-spacing="1.3">1ST PRIZE</text><text x="332.0" y="152.0" font-family="'JetBrains Mono','Consolas','SF Mono',Menlo,monospace" font-size="8.8" fill="#c8d6ee">IDEATHON Hackathon</text><text x="564.0" y="104.0" font-family="'JetBrains Mono','Consolas','SF Mono',Menlo,monospace" font-size="8" fill="#5d6b87" text-anchor="end">2026</text><rect x="602.0" y="72.0" width="268.0" height="92.0" rx="12" fill="#0a1020" stroke="#22d3ee" stroke-opacity=".4"/><rect x="602.0" y="72.0" width="3.5" height="92.0" rx="1.7" fill="#22d3ee" opacity=".85"/><path d="M620 104 l6-10 6 10 11 2-8 8 2 11-11-6-11 6 2-11-8-8z" fill="#22d3ee" opacity=".85"/><text x="620.0" y="134.0" font-family="'Segoe UI',system-ui,-apple-system,Helvetica,Arial,sans-serif" font-size="13.5" fill="#22d3ee" font-weight="700" letter-spacing="1.3">RUNNER-UP</text><text x="620.0" y="152.0" font-family="'JetBrains Mono','Consolas','SF Mono',Menlo,monospace" font-size="8.8" fill="#c8d6ee">CRYPTERA</text><text x="852.0" y="104.0" font-family="'JetBrains Mono','Consolas','SF Mono',Menlo,monospace" font-size="8" fill="#5d6b87" text-anchor="end">2025</text><rect x="26" y="190" width="196" height="56" rx="11" fill="#0a1020" stroke="#22304e" stroke-opacity=".45"/><circle cx="46" cy="218" r="7" fill="none" stroke="#8b5cf6" stroke-opacity=".7"/><path d="M42.5 218 l3 3 5-6" fill="none" stroke="#8b5cf6" stroke-width="1.6" stroke-linecap="round"/><text x="62.0" y="215.0" font-family="'JetBrains Mono','Consolas','SF Mono',Menlo,monospace" font-size="8.4" fill="#dbe6f7">ServiceNow AI Essentials</text><text x="62.0" y="229.0" font-family="'JetBrains Mono','Consolas','SF Mono',Menlo,monospace" font-size="7.6" fill="#3a4763">certification</text><rect x="242" y="190" width="196" height="56" rx="11" fill="#0a1020" stroke="#22304e" stroke-opacity=".45"/><circle cx="262" cy="218" r="7" fill="none" stroke="#8b5cf6" stroke-opacity=".7"/><path d="M258.5 218 l3 3 5-6" fill="none" stroke="#8b5cf6" stroke-width="1.6" stroke-linecap="round"/><text x="278.0" y="215.0" font-family="'JetBrains Mono','Consolas','SF Mono',Menlo,monospace" font-size="8.4" fill="#dbe6f7">Agentic AI (ServiceNow)</text><text x="278.0" y="229.0" font-family="'JetBrains Mono','Consolas','SF Mono',Menlo,monospace" font-size="7.6" fill="#3a4763">certification</text><rect x="458" y="190" width="196" height="56" rx="11" fill="#0a1020" stroke="#22304e" stroke-opacity=".45"/><circle cx="478" cy="218" r="7" fill="none" stroke="#6366f1" stroke-opacity=".7"/><path d="M474.5 218 l3 3 5-6" fill="none" stroke="#6366f1" stroke-width="1.6" stroke-linecap="round"/><text x="494.0" y="215.0" font-family="'JetBrains Mono','Consolas','SF Mono',Menlo,monospace" font-size="8.4" fill="#dbe6f7">Celonis Foundations</text><text x="494.0" y="229.0" font-family="'JetBrains Mono','Consolas','SF Mono',Menlo,monospace" font-size="7.6" fill="#3a4763">certification</text><rect x="674" y="190" width="196" height="56" rx="11" fill="#0a1020" stroke="#22304e" stroke-opacity=".45"/><circle cx="694" cy="218" r="7" fill="none" stroke="#6366f1" stroke-opacity=".7"/><path d="M690.5 218 l3 3 5-6" fill="none" stroke="#6366f1" stroke-width="1.6" stroke-linecap="round"/><text x="710.0" y="215.0" font-family="'JetBrains Mono','Consolas','SF Mono',Menlo,monospace" font-size="8.4" fill="#dbe6f7">IBM LinuxONE</text><text x="710.0" y="229.0" font-family="'JetBrains Mono','Consolas','SF Mono',Menlo,monospace" font-size="7.6" fill="#3a4763">certification</text><text x="26.0" y="274.0" font-family="'JetBrains Mono','Consolas','SF Mono',Menlo,monospace" font-size="8" fill="#3a4763" letter-spacing="1.3">AWARDS AND CERTIFICATIONS ARE SELF-REPORTED FROM THE PROFILE, NOT VERIFIABLE THROUGH THE GITHUB API</text></svg>