<svg xmlns="http://www.w3.org/2000/svg" width="900" height="345" viewBox="0 0 900 345" role="img" aria-label="Activity matrix: 14 contributions across 8 active days since the account opened."><defs><pattern id="gg" width="34" height="34" patternUnits="userSpaceOnUse"><path d="M34 0H0V34" fill="none" stroke="#101728" stroke-width="1"/></pattern><linearGradient id="scan" x1="0" y1="0" x2="1" y2="0"><stop offset="0%" stop-color="#22d3ee" stop-opacity="0"/><stop offset="50%" stop-color="#22d3ee" stop-opacity=".55"/><stop offset="100%" stop-color="#22d3ee" stop-opacity="0"/></linearGradient></defs><rect width="900" height="345" rx="14" fill="#05070e"/><rect width="900" height="345" rx="14" fill="url(#gg)"/><text x="26" y="34" font-family="'JetBrains Mono','Consolas','SF Mono',Menlo,monospace" font-size="10" letter-spacing="2.6" fill="#3f4c68">// ACTIVITY MATRIX</text><text x="874" y="34" text-anchor="end" font-family="'JetBrains Mono','Consolas','SF Mono',Menlo,monospace" font-size="10" letter-spacing="2" fill="#3f4c68">CONTRIBUTION TELEMETRY</text><line x1="26" y1="46" x2="874" y2="46" stroke="#141d31"/><g stroke="#22d3ee" stroke-width="1.5" fill="none" opacity=".55"><path d="M18 84V62h26"/><path d="M882 84V62h-26"/><path d="M18 305v22h26"/><path d="M882 305v22h-26"/></g><text x="165.0" y="86" font-family="'JetBrains Mono','Consolas','SF Mono',Menlo,monospace" font-size="8.6" fill="#5d6b87">MAR</text><text x="215.0" y="86" font-family="'JetBrains Mono','Consolas','SF Mono',Menlo,monospace" font-size="8.6" fill="#5d6b87">APR</text><text x="315.0" y="86" font-family="'JetBrains Mono','Consolas','SF Mono',Menlo,monospace" font-size="8.6" fill="#5d6b87">MAY</text><text x="440.0" y="86" font-family="'JetBrains Mono','Consolas','SF Mono',Menlo,monospace" font-size="8.6" fill="#5d6b87">JUN</text><text x="540.0" y="86" font-family="'JetBrains Mono','Consolas','SF Mono',Menlo,monospace" font-size="8.6" fill="#5d6b87">JUL</text><text x="640.0" y="86" font-family="'JetBrains Mono','Consolas','SF Mono',Menlo,monospace" font-size="8.6" fill="#5d6b87">AUG</text><text x="155.0" y="135.4" text-anchor="end" font-family="'JetBrains Mono','Consolas','SF Mono',Menlo,monospace" font-size="7.6" fill="#3f4c68">MON</text><text x="155.0" y="185.4" text-anchor="end" font-family="'JetBrains Mono','Consolas','SF Mono',Menlo,monospace" font-size="7.6" fill="#3f4c68">WED</text><text x="155.0" y="235.4" text-anchor="end" font-family="'JetBrains Mono','Consolas','SF Mono',Menlo,monospace" font-size="7.6" fill="#3f4c68">FRI</text><rect x="165.0" y="196" width="20" height="20" rx="4" fill="#0f4a57"/><rect x="165.0" y="221" width="20" height="20" rx="4" fill="#0f4a57"/><rect x="165.0" y="246" width="20" height="20" rx="4" fill="#0d1526"/><rect x="190.0" y="96" width="20" height="20" rx="4" fill="#0d1526"/><rect x="190.0" y="121" width="20" height="20" rx="4" fill="#0d1526"/><rect x="190.0" y="146" width="20" height="20" rx="4" fill="#0d1526"/><rect x="190.0" y="171" width="20" height="20" rx="4" fill="#0d1526"/><rect x="190.0" y="196" width="20" height="20" rx="4" fill="#0d1526"/><rect x="190.0" y="221" width="20" height="20" rx="4" fill="#0d1526"/><rect x="190.0" y="246" width="20" height="20" rx="4" fill="#0d1526"/><rect x="215.0" y="96" width="20" height="20" rx="4" fill="#0d1526"/><rect x="215.0" y="121" width="20" height="20" rx="4" fill="#0d1526"/><rect x="215.0" y="146" width="20" height="20" rx="4" fill="#0d1526"/><rect x="215.0" y="171" width="20" height="20" rx="4" fill="#0d1526"/><rect x="215.0" y="196" width="20" height="20" rx="4" fill="#0d1526"/><rect x="215.0" y="221" width="20" height="20" rx="4" fill="#0d1526"/><rect x="215.0" y="246" width="20" height="20" rx="4" fill="#0f4a57"/><rect x="240.0" y="96" width="20" height="20" rx="4" fill="#0d1526"/><rect x="240.0" y="121" width="20" height="20" rx="4" fill="#0d1526"/><rect x="240.0" y="146" width="20" height="20" rx="4" fill="#0d1526"/><rect x="240.0" y="171" width="20" height="20" rx="4" fill="#0d1526"/><rect x="240.0" y="196" width="20" height="20" rx="4" fill="#0d1526"/><rect x="240.0" y="221" width="20" height="20" rx="4" fill="#0d1526"/><rect x="240.0" y="246" width="20" height="20" rx="4" fill="#0d1526"/><rect x="265.0" y="96" width="20" height="20" rx="4" fill="#0d1526"/><rect x="265.0" y="121" width="20" height="20" rx="4" fill="#0d1526"/><rect x="265.0" y="146" width="20" height="20" rx="4" fill="#0d1526"/><rect x="265.0" y="171" width="20" height="20" rx="4" fill="#0d1526"/><rect x="265.0" y="196" width="20" height="20" rx="4" fill="#0d1526"/><rect x="265.0" y="221" width="20" height="20" rx="4" fill="#0d1526"/><rect x="265.0" y="246" width="20" height="20" rx="4" fill="#0d1526"/><rect x="290.0" y="96" width="20" height="20" rx="4" fill="#0d1526"/><rect x="290.0" y="121" width="20" height="20" rx="4" fill="#0d1526"/><rect x="290.0" y="146" width="20" height="20" rx="4" fill="#0d1526"/><rect x="290.0" y="171" width="20" height="20" rx="4" fill="#0d1526"/><rect x="290.0" y="196" width="20" height="20" rx="4" fill="#0d1526"/><rect x="290.0" y="221" width="20" height="20" rx="4" fill="#0d1526"/><rect x="290.0" y="246" width="20" height="20" rx="4" fill="#0d1526"/><rect x="315.0" y="96" width="20" height="20" rx="4" fill="#0d1526"/><rect x="315.0" y="121" width="20" height="20" rx="4" fill="#0d1526"/><rect x="315.0" y="146" width="20" height="20" rx="4" fill="#0d1526"/><rect x="315.0" y="171" width="20" height="20" rx="4" fill="#0d1526"/><rect x="315.0" y="196" width="20" height="20" rx="4" fill="#0d1526"/><rect x="315.0" y="221" width="20" height="20" rx="4" fill="#0d1526"/><rect x="315.0" y="246" width="20" height="20" rx="4" fill="#0d1526"/><rect x="340.0" y="96" width="20" height="20" rx="4" fill="#0d1526"/><rect x="340.0" y="121" width="20" height="20" rx="4" fill="#0d1526"/><rect x="340.0" y="146" width="20" height="20" rx="4" fill="#0d1526"/><rect x="340.0" y="171" width="20" height="20" rx="4" fill="#0d1526"/><rect x="340.0" y="196" width="20" height="20" rx="4" fill="#0d1526"/><rect x="340.0" y="221" width="20" height="20" rx="4" fill="#0d1526"/><rect x="340.0" y="246" width="20" height="20" rx="4" fill="#0d1526"/><rect x="365.0" y="96" width="20" height="20" rx="4" fill="#0d1526"/><rect x="365.0" y="121" width="20" height="20" rx="4" fill="#0d1526"/><rect x="365.0" y="146" width="20" height="20" rx="4" fill="#0d1526"/><rect x="365.0" y="171" width="20" height="20" rx="4" fill="#0d1526"/><rect x="365.0" y="196" width="20" height="20" rx="4" fill="#0d1526"/><rect x="365.0" y="221" width="20" height="20" rx="4" fill="#0d1526"/><rect x="365.0" y="246" width="20" height="20" rx="4" fill="#0d1526"/><rect x="390.0" y="96" width="20" height="20" rx="4" fill="#0d1526"/><rect x="390.0" y="121" width="20" height="20" rx="4" fill="#0d1526"/><rect x="390.0" y="146" width="20" height="20" rx="4" fill="#0d1526"/><rect x="390.0" y="171" width="20" height="20" rx="4" fill="#0f4a57"/><rect x="390.0" y="196" width="20" height="20" rx="4" fill="#0d1526"/><rect x="390.0" y="221" width="20" height="20" rx="4" fill="#0d1526"/><rect x="390.0" y="246" width="20" height="20" rx="4" fill="#0d1526"/><rect x="415.0" y="96" width="20" height="20" rx="4" fill="#0d1526"/><rect x="415.0" y="121" width="20" height="20" rx="4" fill="#0d1526"/><rect x="415.0" y="146" width="20" height="20" rx="4" fill="#0d1526"/><rect x="415.0" y="171" width="20" height="20" rx="4" fill="#0d1526"/><rect x="415.0" y="196" width="20" height="20" rx="4" fill="#0d1526"/><rect x="415.0" y="221" width="20" height="20" rx="4" fill="#0d1526"/><rect x="415.0" y="246" width="20" height="20" rx="4" fill="#0d1526"/><rect x="440.0" y="96" width="20" height="20" rx="4" fill="#0d1526"/><rect x="440.0" y="121" width="20" height="20" rx="4" fill="#0d1526"/><rect x="440.0" y="146" width="20" height="20" rx="4" fill="#0d1526"/><rect x="440.0" y="171" width="20" height="20" rx="4" fill="#0d1526"/><rect x="440.0" y="196" width="20" height="20" rx="4" fill="#0d1526"/><rect x="440.0" y="221" width="20" height="20" rx="4" fill="#0d1526"/><rect x="440.0" y="246" width="20" height="20" rx="4" fill="#0d1526"/><rect x="465.0" y="96" width="20" height="20" rx="4" fill="#0d1526"/><rect x="465.0" y="121" width="20" height="20" rx="4" fill="#0d1526"/><rect x="465.0" y="146" width="20" height="20" rx="4" fill="#0d1526"/><rect x="465.0" y="171" width="20" height="20" rx="4" fill="#0d1526"/><rect x="465.0" y="196" width="20" height="20" rx="4" fill="#0d1526"/><rect x="465.0" y="221" width="20" height="20" rx="4" fill="#0d1526"/><rect x="465.0" y="246" width="20" height="20" rx="4" fill="#0d1526"/><rect x="490.0" y="96" width="20" height="20" rx="4" fill="#0d1526"/><rect x="490.0" y="121" width="20" height="20" rx="4" fill="#0d1526"/><rect x="490.0" y="146" width="20" height="20" rx="4" fill="#0d1526"/><rect x="490.0" y="171" width="20" height="20" rx="4" fill="#0d1526"/><rect x="490.0" y="196" width="20" height="20" rx="4" fill="#0d1526"/><rect x="490.0" y="221" width="20" height="20" rx="4" fill="#0d1526"/><rect x="490.0" y="246" width="20" height="20" rx="4" fill="#0d1526"/><rect x="515.0" y="96" width="20" height="20" rx="4" fill="#0d1526"/><rect x="515.0" y="121" width="20" height="20" rx="4" fill="#0d1526"/><rect x="515.0" y="146" width="20" height="20" rx="4" fill="#0d1526"/><rect x="515.0" y="171" width="20" height="20" rx="4" fill="#0d1526"/><rect x="515.0" y="196" width="20" height="20" rx="4" fill="#0d1526"/><rect x="515.0" y="221" width="20" height="20" rx="4" fill="#0d1526"/><rect x="515.0" y="246" width="20" height="20" rx="4" fill="#0d1526"/><rect x="540.0" y="96" width="20" height="20" rx="4" fill="#0d1526"/><rect x="540.0" y="121" width="20" height="20" rx="4" fill="#0d1526"/><rect x="540.0" y="146" width="20" height="20" rx="4" fill="#0d1526"/><rect x="540.0" y="171" width="20" height="20" rx="4" fill="#0d1526"/><rect x="540.0" y="196" width="20" height="20" rx="4" fill="#0d1526"/><rect x="540.0" y="221" width="20" height="20" rx="4" fill="#0d1526"/><rect x="540.0" y="246" width="20" height="20" rx="4" fill="#0d1526"/><rect x="565.0" y="96" width="20" height="20" rx="4" fill="#0d1526"/><rect x="565.0" y="121" width="20" height="20" rx="4" fill="#0d1526"/><rect x="565.0" y="146" width="20" height="20" rx="4" fill="#0d1526"/><rect x="565.0" y="171" width="20" height="20" rx="4" fill="#0d1526"/><rect x="565.0" y="196" width="20" height="20" rx="4" fill="#0d1526"/><rect x="565.0" y="221" width="20" height="20" rx="4" fill="#0d1526"/><rect x="565.0" y="246" width="20" height="20" rx="4" fill="#0d1526"/><rect x="590.0" y="96" width="20" height="20" rx="4" fill="#0d1526"/><rect x="590.0" y="121" width="20" height="20" rx="4" fill="#15829a"/><rect x="590.0" y="146" width="20" height="20" rx="4" fill="#0d1526"/><rect x="590.0" y="171" width="20" height="20" rx="4" fill="#0d1526"/><rect x="590.0" y="196" width="20" height="20" rx="4" fill="#0d1526"/><rect x="590.0" y="221" width="20" height="20" rx="4" fill="#0d1526"/><rect x="590.0" y="246" width="20" height="20" rx="4" fill="#0d1526"/><rect x="615.0" y="96" width="20" height="20" rx="4" fill="#0d1526"/><rect x="615.0" y="121" width="20" height="20" rx="4" fill="#0d1526"/><rect x="615.0" y="146" width="20" height="20" rx="4" fill="#0d1526"/><rect x="615.0" y="171" width="20" height="20" rx="4" fill="#0d1526"/><rect x="615.0" y="196" width="20" height="20" rx="4" fill="#0d1526"/><rect x="615.0" y="221" width="20" height="20" rx="4" fill="#0d1526"/><rect x="615.0" y="246" width="20" height="20" rx="4" fill="#0d1526"/><rect x="640.0" y="96" width="20" height="20" rx="4" fill="#0d1526"/><rect x="640.0" y="121" width="20" height="20" rx="4" fill="#0d1526"/><rect x="640.0" y="146" width="20" height="20" rx="4" fill="#0f4a57"/><rect x="640.0" y="171" width="20" height="20" rx="4" fill="#8ceef9" stroke="#8ceef9" stroke-opacity=".55"/><rect x="640.0" y="196" width="20" height="20" rx="4" fill="#0d1526"/><rect x="640.0" y="221" width="20" height="20" rx="4" fill="#0d1526"/><rect x="640.0" y="246" width="20" height="20" rx="4" fill="#0d1526"/><rect x="665.0" y="96" width="20" height="20" rx="4" fill="#0d1526"/><rect x="665.0" y="121" width="20" height="20" rx="4" fill="#0f4a57"/><rect x="665.0" y="146" width="20" height="20" rx="4" fill="#0d1526"/><rect x="665.0" y="171" width="20" height="20" rx="4" fill="#0d1526"/><rect x="665.0" y="196" width="20" height="20" rx="4" fill="#0d1526"/><rect x="665.0" y="221" width="20" height="20" rx="4" fill="#0d1526"/><rect x="665.0" y="246" width="20" height="20" rx="4" fill="#0d1526"/><rect x="690.0" y="96" width="20" height="20" rx="4" fill="#0d1526"/><rect x="690.0" y="121" width="20" height="20" rx="4" fill="#0d1526"/><rect x="690.0" y="146" width="20" height="20" rx="4" fill="#0d1526"/><rect x="690.0" y="171" width="20" height="20" rx="4" fill="#0d1526"/><rect x="690.0" y="196" width="20" height="20" rx="4" fill="#0d1526"/><rect x="690.0" y="221" width="20" height="20" rx="4" fill="#0d1526"/><rect x="690.0" y="246" width="20" height="20" rx="4" fill="#0d1526"/><rect x="715.0" y="96" width="20" height="20" rx="4" fill="#0d1526"/><rect x="715.0" y="121" width="20" height="20" rx="4" fill="#0d1526"/><rect x="26" y="96" width="848" height="1.4" fill="url(#scan)"><animate attributeName="y" values="96;265;96" dur="7s" repeatCount="indefinite"/><animate attributeName="opacity" values=".2;.9;.2" dur="7s" repeatCount="indefinite"/></rect><text x="26" y="297" font-family="'JetBrains Mono','Consolas','SF Mono',Menlo,monospace" font-size="8.8" fill="#8091ae">14 CONTRIBUTIONS / 8 ACTIVE DAYS / SINCE 26 MAR 2026</text><text x="686" y="296" text-anchor="end" font-family="'JetBrains Mono','Consolas','SF Mono',Menlo,monospace" font-size="8" fill="#3f4c68">LESS</text><rect x="700" y="287" width="11" height="11" rx="3" fill="#0d1526"/><rect x="716" y="287" width="11" height="11" rx="3" fill="#0f4a57"/><rect x="732" y="287" width="11" height="11" rx="3" fill="#15829a"/><rect x="748" y="287" width="11" height="11" rx="3" fill="#22d3ee"/><rect x="764" y="287" width="11" height="11" rx="3" fill="#8ceef9"/><text x="784" y="296" font-family="'JetBrains Mono','Consolas','SF Mono',Menlo,monospace" font-size="8" fill="#3f4c68">MORE</text></svg>