<svg xmlns="http://www.w3.org/2000/svg" width="900" height="340" viewBox="0 0 900 340" role="img" aria-label="At a glance: Ashwin S builds projects, solves algorithm problems, and explores AI and ML, converging on engineering systems."><defs><pattern id="grid" width="34" height="34" patternUnits="userSpaceOnUse"><path d="M34 0H0V34" fill="none" stroke="#111a2c" stroke-width="1"/></pattern><linearGradient id="rim" x1="0" y1="0" x2="1" y2="0"><stop offset="0%" stop-color="#22d3ee"/><stop offset="50%" stop-color="#6366f1"/><stop offset="100%" stop-color="#8b5cf6"/></linearGradient><linearGradient id="ink" x1="0" y1="0" x2="1" y2="0"><stop offset="0%" stop-color="#ffffff"/><stop offset="100%" stop-color="#7dd3fc"/></linearGradient><filter id="bloom" x="-70%" y="-70%" width="240%" height="240%"><feGaussianBlur stdDeviation="9"/></filter></defs><rect width="900" height="340" rx="14" fill="#060910"/><rect width="900" height="340" rx="14" fill="url(#grid)"/><text x="26" y="34" font-family="'JetBrains Mono','Consolas','SF Mono',Menlo,monospace" font-size="10" letter-spacing="2.6" fill="#3a4763">// AT A GLANCE</text><text x="874" y="34" text-anchor="end" font-family="'JetBrains Mono','Consolas','SF Mono',Menlo,monospace" font-size="10" letter-spacing="2" fill="#3a4763">THREE VERBS</text><line x1="26" y1="46" x2="874" y2="46" stroke="#1b2740"/><path d="M450 94 V116 Q450 132 178 132 V150" fill="none" stroke="#22d3ee" stroke-opacity=".3" stroke-width="1.2"/><rect x="62.0" y="150.0" width="232.0" height="78.0" rx="12" fill="#0a1020" stroke="#22d3ee" stroke-opacity=".38"/><rect x="62.0" y="150.0" width="3.5" height="78.0" rx="1.7" fill="#22d3ee" opacity=".85"/><text x="178.0" y="176.0" font-family="'JetBrains Mono','Consolas','SF Mono',Menlo,monospace" font-size="12.5" fill="#22d3ee" text-anchor="middle" font-weight="700" letter-spacing="2.6">BUILDING</text><text x="178.0" y="196.0" font-family="'JetBrains Mono','Consolas','SF Mono',Menlo,monospace" font-size="10" fill="#e8eef9" text-anchor="middle" letter-spacing="1.6">PROJECTS</text><text x="178.0" y="213.0" font-family="'JetBrains Mono','Consolas','SF Mono',Menlo,monospace" font-size="8.4" fill="#5d6b87" text-anchor="middle">full-stack systems, shipped</text><path d="M178 228 V250 Q178 266 450 266 V282" fill="none" stroke="#22d3ee" stroke-opacity=".3" stroke-width="1.2"/><path d="M450 94 V116 Q450 132 450 132 V150" fill="none" stroke="#2dd4bf" stroke-opacity=".3" stroke-width="1.2"/><rect x="334.0" y="150.0" width="232.0" height="78.0" rx="12" fill="#0a1020" stroke="#2dd4bf" stroke-opacity=".38"/><rect x="334.0" y="150.0" width="3.5" height="78.0" rx="1.7" fill="#2dd4bf" opacity=".85"/><text x="450.0" y="176.0" font-family="'JetBrains Mono','Consolas','SF Mono',Menlo,monospace" font-size="12.5" fill="#2dd4bf" text-anchor="middle" font-weight="700" letter-spacing="2.6">SOLVING</text><text x="450.0" y="196.0" font-family="'JetBrains Mono','Consolas','SF Mono',Menlo,monospace" font-size="10" fill="#e8eef9" text-anchor="middle" letter-spacing="1.6">LEETCODE</text><text x="450.0" y="213.0" font-family="'JetBrains Mono','Consolas','SF Mono',Menlo,monospace" font-size="8.4" fill="#5d6b87" text-anchor="middle">data structures + algorithms</text><path d="M450 228 V250 Q450 266 450 266 V282" fill="none" stroke="#2dd4bf" stroke-opacity=".3" stroke-width="1.2"/><path d="M450 94 V116 Q450 132 722 132 V150" fill="none" stroke="#8b5cf6" stroke-opacity=".3" stroke-width="1.2"/><rect x="606.0" y="150.0" width="232.0" height="78.0" rx="12" fill="#0a1020" stroke="#8b5cf6" stroke-opacity=".38"/><rect x="606.0" y="150.0" width="3.5" height="78.0" rx="1.7" fill="#8b5cf6" opacity=".85"/><text x="722.0" y="176.0" font-family="'JetBrains Mono','Consolas','SF Mono',Menlo,monospace" font-size="12.5" fill="#8b5cf6" text-anchor="middle" font-weight="700" letter-spacing="2.6">EXPLORING</text><text x="722.0" y="196.0" font-family="'JetBrains Mono','Consolas','SF Mono',Menlo,monospace" font-size="10" fill="#e8eef9" text-anchor="middle" letter-spacing="1.6">AI / ML</text><text x="722.0" y="213.0" font-family="'JetBrains Mono','Consolas','SF Mono',Menlo,monospace" font-size="8.4" fill="#5d6b87" text-anchor="middle">applied intelligence</text><path d="M722 228 V250 Q722 266 450 266 V282" fill="none" stroke="#8b5cf6" stroke-opacity=".3" stroke-width="1.2"/><g><rect x="366" y="62" width="168" height="32" rx="16" fill="#0d1426" stroke="#22d3ee" stroke-opacity=".7"/><text x="450" y="83" text-anchor="middle" font-family="'Segoe UI',system-ui,-apple-system,Helvetica,Arial,sans-serif" font-size="12" font-weight="700" letter-spacing="3" fill="#e8eef9">ASHWIN S</text></g><g><rect x="330" y="282" width="240" height="30" rx="15" fill="#0a1020" stroke="#6366f1" stroke-opacity=".45"/><text x="450" y="301" text-anchor="middle" font-family="'JetBrains Mono','Consolas','SF Mono',Menlo,monospace" font-size="9.6" letter-spacing="2.4" fill="#93a1bd">ENGINEERING SYSTEMS</text></g></svg>