<svg xmlns="http://www.w3.org/2000/svg" width="900" height="320" viewBox="0 0 900 320" role="img" aria-label="Build philosophy loop: build, learn, ship, measure, iterate."><defs><pattern id="grid" width="34" height="34" patternUnits="userSpaceOnUse"><path d="M34 0H0V34" fill="none" stroke="#111a2c" stroke-width="1"/></pattern><linearGradient id="rim" x1="0" y1="0" x2="1" y2="0"><stop offset="0%" stop-color="#22d3ee"/><stop offset="50%" stop-color="#6366f1"/><stop offset="100%" stop-color="#8b5cf6"/></linearGradient><linearGradient id="ink" x1="0" y1="0" x2="1" y2="0"><stop offset="0%" stop-color="#ffffff"/><stop offset="100%" stop-color="#7dd3fc"/></linearGradient><filter id="bloom" x="-70%" y="-70%" width="240%" height="240%"><feGaussianBlur stdDeviation="9"/></filter></defs><rect width="900" height="320" rx="14" fill="#060910"/><rect width="900" height="320" rx="14" fill="url(#grid)"/><text x="26" y="34" font-family="'JetBrains Mono','Consolas','SF Mono',Menlo,monospace" font-size="10" letter-spacing="2.6" fill="#3a4763">// BUILD PHILOSOPHY</text><text x="874" y="34" text-anchor="end" font-family="'JetBrains Mono','Consolas','SF Mono',Menlo,monospace" font-size="10" letter-spacing="2" fill="#3a4763">HOW THE WORK MOVES</text><line x1="26" y1="46" x2="874" y2="46" stroke="#1b2740"/><circle cx="450" cy="176" r="96" fill="none" stroke="#22304e" stroke-opacity=".45" stroke-dasharray="3 7"/><path d="M450.0 80.0 A96 96 0 0 1 541.3 146.3" fill="none" stroke="#22d3ee" stroke-opacity=".38" stroke-width="1.4"/><path d="M541.3 146.3 A96 96 0 0 1 506.4 253.7" fill="none" stroke="#8b5cf6" stroke-opacity=".38" stroke-width="1.4"/><path d="M506.4 253.7 A96 96 0 0 1 393.6 253.7" fill="none" stroke="#2dd4bf" stroke-opacity=".38" stroke-width="1.4"/><path d="M393.6 253.7 A96 96 0 0 1 358.7 146.3" fill="none" stroke="#6366f1" stroke-opacity=".38" stroke-width="1.4"/><path d="M358.7 146.3 A96 96 0 0 1 450.0 80.0" fill="none" stroke="#f59e0b" stroke-opacity=".38" stroke-width="1.4"/><rect x="420.5" y="68.0" width="59.0" height="24" rx="12" fill="#0d1426" stroke="#22d3ee" stroke-opacity=".55"/><text x="450.0" y="84.0" font-family="'JetBrains Mono','Consolas','SF Mono',Menlo,monospace" font-size="9.6" fill="#22d3ee" text-anchor="middle" font-weight="700" letter-spacing="1.6">BUILD</text><rect x="511.8" y="134.3" width="59.0" height="24" rx="12" fill="#0d1426" stroke="#8b5cf6" stroke-opacity=".55"/><text x="541.3" y="150.3" font-family="'JetBrains Mono','Consolas','SF Mono',Menlo,monospace" font-size="9.6" fill="#8b5cf6" text-anchor="middle" font-weight="700" letter-spacing="1.6">LEARN</text><rect x="480.2" y="241.7" width="52.4" height="24" rx="12" fill="#0d1426" stroke="#2dd4bf" stroke-opacity=".55"/><text x="506.4" y="257.7" font-family="'JetBrains Mono','Consolas','SF Mono',Menlo,monospace" font-size="9.6" fill="#2dd4bf" text-anchor="middle" font-weight="700" letter-spacing="1.6">SHIP</text><rect x="357.5" y="241.7" width="72.2" height="24" rx="12" fill="#0d1426" stroke="#6366f1" stroke-opacity=".55"/><text x="393.6" y="257.7" font-family="'JetBrains Mono','Consolas','SF Mono',Menlo,monospace" font-size="9.6" fill="#6366f1" text-anchor="middle" font-weight="700" letter-spacing="1.6">MEASURE</text><rect x="322.6" y="134.3" width="72.2" height="24" rx="12" fill="#0d1426" stroke="#f59e0b" stroke-opacity=".55"/><text x="358.7" y="150.3" font-family="'JetBrains Mono','Consolas','SF Mono',Menlo,monospace" font-size="9.6" fill="#f59e0b" text-anchor="middle" font-weight="700" letter-spacing="1.6">ITERATE</text><text x="450" y="174" text-anchor="middle" font-family="'JetBrains Mono','Consolas','SF Mono',Menlo,monospace" font-size="10" font-weight="700" letter-spacing="2.4" fill="#e8eef9">LOOP</text><text x="450" y="190" text-anchor="middle" font-family="'JetBrains Mono','Consolas','SF Mono',Menlo,monospace" font-size="8" letter-spacing="1.4" fill="#3a4763">not a checklist</text></svg>